<?xml version="1.0" encoding="UTF-8" standalone="no"?>
<!DOCTYPE svg PUBLIC "-//W3C//DTD SVG 1.1//EN"
 "http://www.w3.org/Graphics/SVG/1.1/DTD/svg11.dtd">
<!-- Generated by graphviz version 2.42.4 (0)
 -->
<!-- Title: G Pages: 1 -->
<svg width="1086pt" height="836pt"
 viewBox="0.00 0.00 1086.00 836.00" xmlns="http://www.w3.org/2000/svg" xmlns:xlink="http://www.w3.org/1999/xlink">
<g id="graph0" class="graph" transform="scale(1 1) rotate(0) translate(18 818)">
<title>G</title>
<polygon fill="white" stroke="transparent" points="-18,18 -18,-818 1068,-818 1068,18 -18,18"/>
<text text-anchor="middle" x="525" y="-780" font-family="Arial" font-size="20.00">CareAssist Support</text>
<!-- IEmailNotificationService -->
<g id="node1" class="node">
<title>IEmailNotificationService</title>
<polygon fill="#fff2cc" stroke="transparent" points="536.5,-364 536.5,-400 840.5,-400 840.5,-364 536.5,-364"/>
<polygon fill="none" stroke="black" points="536.5,-364 536.5,-400 840.5,-400 840.5,-364 536.5,-364"/>
<text text-anchor="start" x="639" y="-387" font-family="Arial" font-size="10.00">&lt;&lt;Service Interface&gt;&gt;</text>
<text text-anchor="start" x="607" y="-373.8" font-family="Arial" font-weight="bold" font-size="14.00">IEmailNotificationService</text>
<polygon fill="none" stroke="black" points="536.5,-342 536.5,-364 840.5,-364 840.5,-342 536.5,-342"/>
<text text-anchor="start" x="542.5" y="-350.8" font-family="Arial" font-size="9.00">+ &#160;createNotification(dto: EmailNotificationDTO): EmailNotificationDTO</text>
<polygon fill="none" stroke="black" points="536.5,-320 536.5,-342 840.5,-342 840.5,-320 536.5,-320"/>
<text text-anchor="start" x="542.5" y="-328.8" font-family="Arial" font-size="9.00">+ &#160;getNotificationById(notificationId: Integer): EmailNotificationDTO</text>
<polygon fill="none" stroke="black" points="536.5,-298 536.5,-320 840.5,-320 840.5,-298 536.5,-298"/>
<text text-anchor="start" x="542.5" y="-306.8" font-family="Arial" font-size="9.00">+ &#160;getNotificationsByUserId(userId: Integer): List&lt;EmailNotificationDTO&gt;</text>
<polygon fill="none" stroke="black" points="536.5,-276 536.5,-298 840.5,-298 840.5,-276 536.5,-276"/>
<text text-anchor="start" x="542.5" y="-284.8" font-family="Arial" font-size="9.00">+ &#160;getAllNotifications(): List&lt;EmailNotificationDTO&gt;</text>
<polygon fill="none" stroke="black" points="536.5,-254 536.5,-276 840.5,-276 840.5,-254 536.5,-254"/>
<text text-anchor="start" x="542.5" y="-262.8" font-family="Arial" font-size="9.00">+ &#160;deleteNotification(notificationId: Integer): void</text>
</g>
<!-- ITokenBlacklistService -->
<g id="node2" class="node">
<title>ITokenBlacklistService</title>
<polygon fill="#fff2cc" stroke="transparent" points="554.5,-734 554.5,-770 823.5,-770 823.5,-734 554.5,-734"/>
<polygon fill="none" stroke="black" points="554.5,-734 554.5,-770 823.5,-770 823.5,-734 554.5,-734"/>
<text text-anchor="start" x="639.5" y="-757" font-family="Arial" font-size="10.00">&lt;&lt;Service Interface&gt;&gt;</text>
<text text-anchor="start" x="615.5" y="-743.8" font-family="Arial" font-weight="bold" font-size="14.00">ITokenBlacklistService</text>
<polygon fill="none" stroke="black" points="554.5,-712 554.5,-734 823.5,-734 823.5,-712 554.5,-712"/>
<text text-anchor="start" x="560.5" y="-720.8" font-family="Arial" font-size="9.00">+ &#160;blacklistToken(dto: TokenBlacklistDTO): TokenBlacklistDTO</text>
<polygon fill="none" stroke="black" points="554.5,-690 554.5,-712 823.5,-712 823.5,-690 554.5,-690"/>
<text text-anchor="start" x="560.5" y="-698.8" font-family="Arial" font-size="9.00">+ &#160;blacklistToken(token: String): TokenBlacklistDTO</text>
<polygon fill="none" stroke="black" points="554.5,-668 554.5,-690 823.5,-690 823.5,-668 554.5,-668"/>
<text text-anchor="start" x="560.5" y="-676.8" font-family="Arial" font-size="9.00">+ &#160;isTokenBlacklisted(token: String): boolean</text>
<polygon fill="none" stroke="black" points="554.5,-646 554.5,-668 823.5,-668 823.5,-646 554.5,-646"/>
<text text-anchor="start" x="560.5" y="-654.8" font-family="Arial" font-size="9.00">+ &#160;getAllBlacklistedTokens(): List&lt;TokenBlacklistDTO&gt;</text>
<polygon fill="none" stroke="black" points="554.5,-624 554.5,-646 823.5,-646 823.5,-624 554.5,-624"/>
<text text-anchor="start" x="560.5" y="-632.8" font-family="Arial" font-size="9.00">+ &#160;deleteExpiredTokens(beforeDateTime: LocalDateTime): void</text>
</g>
<!-- IMailService -->
<g id="node3" class="node">
<title>IMailService</title>
<polygon fill="#fff2cc" stroke="transparent" points="327.5,-88 327.5,-124 1050.5,-124 1050.5,-88 327.5,-88"/>
<polygon fill="none" stroke="black" points="327.5,-88 327.5,-124 1050.5,-124 1050.5,-88 327.5,-88"/>
<text text-anchor="start" x="639.5" y="-111" font-family="Arial" font-size="10.00">&lt;&lt;Service Interface&gt;&gt;</text>
<text text-anchor="start" x="649.5" y="-97.8" font-family="Arial" font-weight="bold" font-size="14.00">IMailService</text>
<polygon fill="none" stroke="black" points="327.5,-66 327.5,-88 1050.5,-88 1050.5,-66 327.5,-66"/>
<text text-anchor="start" x="333.5" y="-74.8" font-family="Arial" font-size="9.00">+ &#160;sendSimpleEmail(to: String, subject: String, body: String): void</text>
<polygon fill="none" stroke="black" points="327.5,-44 327.5,-66 1050.5,-66 1050.5,-44 327.5,-44"/>
<text text-anchor="start" x="333.5" y="-52.8" font-family="Arial" font-size="9.00">+ &#160;sendSimpleEmail(to: String, subject: String, body: String, senderDisplayName: String, replyToEmail: String): void</text>
<polygon fill="none" stroke="black" points="327.5,-22 327.5,-44 1050.5,-44 1050.5,-22 327.5,-22"/>
<text text-anchor="start" x="333.5" y="-30.8" font-family="Arial" font-size="9.00">+ &#160;sendEmailWithAttachment(to: String, subject: String, body: String, attachmentName: String, attachmentContent: byte[]): void</text>
<polygon fill="none" stroke="black" points="327.5,0 327.5,-22 1050.5,-22 1050.5,0 327.5,0"/>
<text text-anchor="start" x="333.5" y="-8.8" font-family="Arial" font-size="9.00">+ &#160;sendEmailWithAttachment(to: String, subject: String, body: String, attachmentName: String, attachmentContent: byte[], senderDisplayName: String, replyToEmail: String): void</text>
</g>
<!-- EmailNotificationServiceImpl -->
<g id="node4" class="node">
<title>EmailNotificationServiceImpl</title>
<polygon fill="#d5e8d4" stroke="transparent" points="0,-273 0,-309 200,-309 200,-273 0,-273"/>
<polygon fill="none" stroke="black" points="0,-273 0,-309 200,-309 200,-273 0,-273"/>
<text text-anchor="start" x="71" y="-296" font-family="Arial" font-size="10.00">&lt;&lt;Service&gt;&gt;</text>
<text text-anchor="start" x="6" y="-282.8" font-family="Arial" font-weight="bold" font-size="14.00">EmailNotificationServiceImpl</text>
<polygon fill="none" stroke="black" points="0,-251 0,-273 200,-273 200,-251 0,-251"/>
<text text-anchor="start" x="6" y="-259.8" font-family="Arial" font-size="9.00">&#45; &#160;EmailNotificationRepository</text>
<polygon fill="none" stroke="black" points="0,-229 0,-251 200,-251 200,-229 0,-229"/>
<text text-anchor="start" x="6" y="-237.8" font-family="Arial" font-size="9.00">&#45; &#160;AppUserRepository</text>
<polygon fill="none" stroke="black" points="0,-207 0,-229 200,-229 200,-207 0,-207"/>
<text text-anchor="start" x="6" y="-215.8" font-family="Arial" font-size="9.00">&#45; &#160;IMailService</text>
</g>
<!-- EmailNotificationServiceImpl&#45;&gt;IEmailNotificationService -->
<g id="edge1" class="edge">
<title>EmailNotificationServiceImpl&#45;&gt;IEmailNotificationService</title>
<path fill="none" stroke="#556270" stroke-dasharray="5,2" d="M200.16,-269.67C289.31,-280.15 421.91,-295.75 526.3,-308.03"/>
<polygon fill="none" stroke="#556270" points="525.97,-311.52 536.31,-309.21 526.78,-304.57 525.97,-311.52"/>
<text text-anchor="middle" x="263.5" y="-281.6" font-family="Arial" font-size="8.00">implements</text>
</g>
<!-- EmailNotificationServiceImpl&#45;&gt;IMailService -->
<g id="edge4" class="edge">
<title>EmailNotificationServiceImpl&#45;&gt;IMailService</title>
<path fill="none" stroke="#556270" stroke-dasharray="5,2" d="M200.13,-207.12C260.85,-175.95 327,-142 327,-142 327,-142 356.18,-135.53 397.93,-126.26"/>
<polygon fill="#556270" stroke="#556270" points="407.9,-124.05 399.12,-130.61 403.02,-125.13 398.14,-126.21 398.14,-126.21 398.14,-126.21 403.02,-125.13 397.17,-121.82 407.9,-124.05 407.9,-124.05"/>
<text text-anchor="middle" x="263.5" y="-185.6" font-family="Arial" font-size="8.00">uses</text>
</g>
<!-- AppUserRepository -->
<g id="node7" class="node">
<title>AppUserRepository</title>
<polygon fill="#e1d5e7" stroke="transparent" points="619.5,-182 619.5,-218 758.5,-218 758.5,-182 619.5,-182"/>
<polygon fill="none" stroke="black" points="619.5,-182 619.5,-218 758.5,-218 758.5,-182 619.5,-182"/>
<text text-anchor="start" x="653" y="-205" font-family="Arial" font-size="10.00">&lt;&lt;Repository&gt;&gt;</text>
<text text-anchor="start" x="625.5" y="-191.8" font-family="Arial" font-weight="bold" font-size="14.00">AppUserRepository</text>
<polygon fill="none" stroke="black" points="619.5,-160 619.5,-182 758.5,-182 758.5,-160 619.5,-160"/>
<text text-anchor="start" x="625.5" y="-168.8" font-family="Arial" font-size="9.00"> </text>
</g>
<!-- EmailNotificationServiceImpl&#45;&gt;AppUserRepository -->
<g id="edge3" class="edge">
<title>EmailNotificationServiceImpl&#45;&gt;AppUserRepository</title>
<path fill="none" stroke="#556270" stroke-dasharray="5,2" d="M200.16,-246.33C315.34,-232.78 503.03,-210.7 608.72,-198.27"/>
<polygon fill="#556270" stroke="#556270" points="618.68,-197.1 609.28,-202.73 613.72,-197.68 608.75,-198.26 608.75,-198.26 608.75,-198.26 613.72,-197.68 608.23,-193.8 618.68,-197.1 618.68,-197.1"/>
<text text-anchor="middle" x="263.5" y="-242.6" font-family="Arial" font-size="8.00">uses</text>
</g>
<!-- EmailNotificationRepository -->
<g id="node8" class="node">
<title>EmailNotificationRepository</title>
<polygon fill="#e1d5e7" stroke="transparent" points="591.5,-458 591.5,-494 785.5,-494 785.5,-458 591.5,-458"/>
<polygon fill="none" stroke="black" points="591.5,-458 591.5,-494 785.5,-494 785.5,-458 591.5,-458"/>
<text text-anchor="start" x="652.5" y="-481" font-family="Arial" font-size="10.00">&lt;&lt;Repository&gt;&gt;</text>
<text text-anchor="start" x="597.5" y="-467.8" font-family="Arial" font-weight="bold" font-size="14.00">EmailNotificationRepository</text>
<polygon fill="none" stroke="black" points="591.5,-436 591.5,-458 785.5,-458 785.5,-436 591.5,-436"/>
<text text-anchor="start" x="597.5" y="-444.8" font-family="Arial" font-size="9.00"> </text>
</g>
<!-- EmailNotificationServiceImpl&#45;&gt;EmailNotificationRepository -->
<g id="edge2" class="edge">
<title>EmailNotificationServiceImpl&#45;&gt;EmailNotificationRepository</title>
<path fill="none" stroke="#556270" stroke-dasharray="5,2" d="M173.13,-309.06C239.27,-355.89 327,-418 327,-418 327,-418 474.88,-437.28 581.21,-451.14"/>
<polygon fill="#556270" stroke="#556270" points="591.37,-452.47 580.87,-455.64 586.41,-451.82 581.45,-451.17 581.45,-451.17 581.45,-451.17 586.41,-451.82 582.03,-446.71 591.37,-452.47 591.37,-452.47"/>
<text text-anchor="middle" x="263.5" y="-389.6" font-family="Arial" font-size="8.00">uses</text>
</g>
<!-- MailServiceImpl -->
<g id="node5" class="node">
<title>MailServiceImpl</title>
<polygon fill="#d5e8d4" stroke="transparent" points="42,-55 42,-91 158,-91 158,-55 42,-55"/>
<polygon fill="none" stroke="black" points="42,-55 42,-91 158,-91 158,-55 42,-55"/>
<text text-anchor="start" x="71" y="-78" font-family="Arial" font-size="10.00">&lt;&lt;Service&gt;&gt;</text>
<text text-anchor="start" x="48" y="-64.8" font-family="Arial" font-weight="bold" font-size="14.00">MailServiceImpl</text>
<polygon fill="none" stroke="black" points="42,-33 42,-55 158,-55 158,-33 42,-33"/>
<text text-anchor="start" x="48" y="-41.8" font-family="Arial" font-size="9.00"> </text>
</g>
<!-- MailServiceImpl&#45;&gt;IMailService -->
<g id="edge5" class="edge">
<title>MailServiceImpl&#45;&gt;IMailService</title>
<path fill="none" stroke="#556270" stroke-dasharray="5,2" d="M158.04,-62C197.78,-62 254.59,-62 316.37,-62"/>
<polygon fill="none" stroke="#556270" points="316.73,-65.5 326.73,-62 316.73,-58.5 316.73,-65.5"/>
<text text-anchor="middle" x="263.5" y="-64.6" font-family="Arial" font-size="8.00">implements</text>
</g>
<!-- TokenBlacklistServiceImpl -->
<g id="node6" class="node">
<title>TokenBlacklistServiceImpl</title>
<polygon fill="#d5e8d4" stroke="transparent" points="8,-621 8,-657 192,-657 192,-621 8,-621"/>
<polygon fill="none" stroke="black" points="8,-621 8,-657 192,-657 192,-621 8,-621"/>
<text text-anchor="start" x="71" y="-644" font-family="Arial" font-size="10.00">&lt;&lt;Service&gt;&gt;</text>
<text text-anchor="start" x="14" y="-630.8" font-family="Arial" font-weight="bold" font-size="14.00">TokenBlacklistServiceImpl</text>
<polygon fill="none" stroke="black" points="8,-599 8,-621 192,-621 192,-599 8,-599"/>
<text text-anchor="start" x="14" y="-607.8" font-family="Arial" font-size="9.00">&#45; &#160;TokenBlacklistRepository</text>
</g>
<!-- TokenBlacklistServiceImpl&#45;&gt;ITokenBlacklistService -->
<g id="edge6" class="edge">
<title>TokenBlacklistServiceImpl&#45;&gt;ITokenBlacklistService</title>
<path fill="none" stroke="#556270" stroke-dasharray="5,2" d="M192.32,-638.74C286.3,-649.8 434.06,-667.18 543.74,-680.09"/>
<polygon fill="none" stroke="#556270" points="543.56,-683.59 553.9,-681.28 544.37,-676.64 543.56,-683.59"/>
<text text-anchor="middle" x="263.5" y="-650.6" font-family="Arial" font-size="8.00">implements</text>
</g>
<!-- TokenBlacklistRepository -->
<g id="node9" class="node">
<title>TokenBlacklistRepository</title>
<polygon fill="#e1d5e7" stroke="transparent" points="599.5,-552 599.5,-588 777.5,-588 777.5,-552 599.5,-552"/>
<polygon fill="none" stroke="black" points="599.5,-552 599.5,-588 777.5,-588 777.5,-552 599.5,-552"/>
<text text-anchor="start" x="652.5" y="-575" font-family="Arial" font-size="10.00">&lt;&lt;Repository&gt;&gt;</text>
<text text-anchor="start" x="605.5" y="-561.8" font-family="Arial" font-weight="bold" font-size="14.00">TokenBlacklistRepository</text>
<polygon fill="none" stroke="black" points="599.5,-530 599.5,-552 777.5,-552 777.5,-530 599.5,-530"/>
<text text-anchor="start" x="605.5" y="-538.8" font-family="Arial" font-size="9.00"> </text>
</g>
<!-- TokenBlacklistServiceImpl&#45;&gt;TokenBlacklistRepository -->
<g id="edge7" class="edge">
<title>TokenBlacklistServiceImpl&#45;&gt;TokenBlacklistRepository</title>
<path fill="none" stroke="#556270" stroke-dasharray="5,2" d="M192.32,-617.26C300.03,-604.58 478.41,-583.6 589.11,-570.58"/>
<polygon fill="#556270" stroke="#556270" points="599.27,-569.38 589.87,-575.02 594.31,-569.96 589.34,-570.55 589.34,-570.55 589.34,-570.55 594.31,-569.96 588.82,-566.08 599.27,-569.38 599.27,-569.38"/>
<text text-anchor="middle" x="263.5" y="-611.6" font-family="Arial" font-size="8.00">uses</text>
</g>
</g>
</svg>
