<?xml version="1.0" encoding="UTF-8" standalone="no"?>
<!DOCTYPE svg PUBLIC "-//W3C//DTD SVG 1.1//EN"
 "http://www.w3.org/Graphics/SVG/1.1/DTD/svg11.dtd">
<!-- Generated by graphviz version 2.42.4 (0)
 -->
<!-- Title: G Pages: 1 -->
<svg width="1592pt" height="929pt"
 viewBox="0.00 0.00 1592.00 929.00" xmlns="http://www.w3.org/2000/svg" xmlns:xlink="http://www.w3.org/1999/xlink">
<g id="graph0" class="graph" transform="scale(1 1) rotate(0) translate(18 911)">
<title>G</title>
<polygon fill="white" stroke="transparent" points="-18,18 -18,-911 1574,-911 1574,18 -18,18"/>
<text text-anchor="middle" x="778" y="-873" font-family="Arial" font-size="20.00">CareAssist Entity UML</text>
<!-- Admin -->
<g id="node1" class="node">
<title>Admin</title>
<polygon fill="#d9eaf7" stroke="transparent" points="1202.5,-827 1202.5,-863 1299.5,-863 1299.5,-827 1202.5,-827"/>
<polygon fill="none" stroke="black" points="1202.5,-827 1202.5,-863 1299.5,-863 1299.5,-827 1202.5,-827"/>
<text text-anchor="start" x="1226" y="-850" font-family="Arial" font-size="10.00">&lt;&lt;Entity&gt;&gt;</text>
<text text-anchor="start" x="1229.5" y="-836.8" font-family="Arial" font-weight="bold" font-size="14.00">Admin</text>
<polygon fill="none" stroke="black" points="1202.5,-805 1202.5,-827 1299.5,-827 1299.5,-805 1202.5,-805"/>
<text text-anchor="start" x="1208.5" y="-813.8" font-family="Arial" font-size="9.00">PK &#160;adminId : int</text>
<polygon fill="none" stroke="black" points="1202.5,-783 1202.5,-805 1299.5,-805 1299.5,-783 1202.5,-783"/>
<text text-anchor="start" x="1208.5" y="-791.8" font-family="Arial" font-size="9.00">&#45; &#160;fullName : String</text>
<polygon fill="none" stroke="black" points="1202.5,-761 1202.5,-783 1299.5,-783 1299.5,-761 1202.5,-761"/>
<text text-anchor="start" x="1208.5" y="-769.8" font-family="Arial" font-size="9.00">&#45; &#160;department : String</text>
</g>
<!-- AppUser -->
<g id="node2" class="node">
<title>AppUser</title>
<polygon fill="#d9eaf7" stroke="transparent" points="1428,-559 1428,-595 1556,-595 1556,-559 1428,-559"/>
<polygon fill="none" stroke="black" points="1428,-559 1428,-595 1556,-595 1556,-559 1428,-559"/>
<text text-anchor="start" x="1467" y="-582" font-family="Arial" font-size="10.00">&lt;&lt;Entity&gt;&gt;</text>
<text text-anchor="start" x="1463.5" y="-568.8" font-family="Arial" font-weight="bold" font-size="14.00">AppUser</text>
<polygon fill="none" stroke="black" points="1428,-537 1428,-559 1556,-559 1556,-537 1428,-537"/>
<text text-anchor="start" x="1434" y="-545.8" font-family="Arial" font-size="9.00">PK &#160;userId : int</text>
<polygon fill="none" stroke="black" points="1428,-515 1428,-537 1556,-537 1556,-515 1428,-515"/>
<text text-anchor="start" x="1434" y="-523.8" font-family="Arial" font-size="9.00">&#45; &#160;username : String</text>
<polygon fill="none" stroke="black" points="1428,-493 1428,-515 1556,-515 1556,-493 1428,-493"/>
<text text-anchor="start" x="1434" y="-501.8" font-family="Arial" font-size="9.00">&#45; &#160;email : String</text>
<polygon fill="none" stroke="black" points="1428,-471 1428,-493 1556,-493 1556,-471 1428,-471"/>
<text text-anchor="start" x="1434" y="-479.8" font-family="Arial" font-size="9.00">&#45; &#160;password : String</text>
<polygon fill="none" stroke="black" points="1428,-449 1428,-471 1556,-471 1556,-449 1428,-449"/>
<text text-anchor="start" x="1434" y="-457.8" font-family="Arial" font-size="9.00">&#45; &#160;role : String</text>
<polygon fill="none" stroke="black" points="1428,-427 1428,-449 1556,-449 1556,-427 1428,-427"/>
<text text-anchor="start" x="1434" y="-435.8" font-family="Arial" font-size="9.00">&#45; &#160;profilePicture : String</text>
<polygon fill="none" stroke="black" points="1428,-405 1428,-427 1556,-427 1556,-405 1428,-405"/>
<text text-anchor="start" x="1434" y="-413.8" font-family="Arial" font-size="9.00">&#45; &#160;phoneNumber : String</text>
<polygon fill="none" stroke="black" points="1428,-383 1428,-405 1556,-405 1556,-383 1428,-383"/>
<text text-anchor="start" x="1434" y="-391.8" font-family="Arial" font-size="9.00">&#45; &#160;createdAt : LocalDateTime</text>
<polygon fill="none" stroke="black" points="1428,-361 1428,-383 1556,-383 1556,-361 1428,-361"/>
<text text-anchor="start" x="1434" y="-369.8" font-family="Arial" font-size="9.00">&#45; &#160;active : boolean</text>
</g>
<!-- Admin&#45;&gt;AppUser -->
<g id="edge1" class="edge">
<title>Admin&#45;&gt;AppUser</title>
<path fill="none" stroke="#556270" stroke-width="1.1" d="M1299.08,-765.47C1310.76,-754.03 1320,-745 1320,-745 1320,-745 1379.1,-652.72 1427.81,-576.66"/>
<text text-anchor="middle" x="1374" y="-689.6" font-family="Arial" font-size="8.00"> &#160;appUser</text>
<text text-anchor="middle" x="1425.69" y="-590.62" font-family="Arial" font-size="8.00">0..1</text>
<text text-anchor="middle" x="1304.71" y="-748.59" font-family="Arial" font-size="8.00">0..*</text>
</g>
<!-- Claim -->
<g id="node3" class="node">
<title>Claim</title>
<polygon fill="#d9eaf7" stroke="transparent" points="239.5,-478 239.5,-514 394.5,-514 394.5,-478 239.5,-478"/>
<polygon fill="none" stroke="black" points="239.5,-478 239.5,-514 394.5,-514 394.5,-478 239.5,-478"/>
<text text-anchor="start" x="292" y="-501" font-family="Arial" font-size="10.00">&lt;&lt;Entity&gt;&gt;</text>
<text text-anchor="start" x="298" y="-487.8" font-family="Arial" font-weight="bold" font-size="14.00">Claim</text>
<polygon fill="none" stroke="black" points="239.5,-456 239.5,-478 394.5,-478 394.5,-456 239.5,-456"/>
<text text-anchor="start" x="245.5" y="-464.8" font-family="Arial" font-size="9.00">PK &#160;claimId : int</text>
<polygon fill="none" stroke="black" points="239.5,-434 239.5,-456 394.5,-456 394.5,-434 239.5,-434"/>
<text text-anchor="start" x="245.5" y="-442.8" font-family="Arial" font-size="9.00">&#45; &#160;diagnosis : String</text>
<polygon fill="none" stroke="black" points="239.5,-412 239.5,-434 394.5,-434 394.5,-412 239.5,-412"/>
<text text-anchor="start" x="245.5" y="-420.8" font-family="Arial" font-size="9.00">&#45; &#160;treatment : String</text>
<polygon fill="none" stroke="black" points="239.5,-390 239.5,-412 394.5,-412 394.5,-390 239.5,-390"/>
<text text-anchor="start" x="245.5" y="-398.8" font-family="Arial" font-size="9.00">&#45; &#160;dateOfService : LocalDate</text>
<polygon fill="none" stroke="black" points="239.5,-368 239.5,-390 394.5,-390 394.5,-368 239.5,-368"/>
<text text-anchor="start" x="245.5" y="-376.8" font-family="Arial" font-size="9.00">&#45; &#160;claimAmount : BigDecimal</text>
<polygon fill="none" stroke="black" points="239.5,-346 239.5,-368 394.5,-368 394.5,-346 239.5,-346"/>
<text text-anchor="start" x="245.5" y="-354.8" font-family="Arial" font-size="9.00">&#45; &#160;approvedAmount : BigDecimal</text>
<polygon fill="none" stroke="black" points="239.5,-324 239.5,-346 394.5,-346 394.5,-324 239.5,-324"/>
<text text-anchor="start" x="245.5" y="-332.8" font-family="Arial" font-size="9.00">&#45; &#160;submissionDate : LocalDateTime</text>
<polygon fill="none" stroke="black" points="239.5,-302 239.5,-324 394.5,-324 394.5,-302 239.5,-302"/>
<text text-anchor="start" x="245.5" y="-310.8" font-family="Arial" font-size="9.00">&#45; &#160;approvalDate : LocalDateTime</text>
<polygon fill="none" stroke="black" points="239.5,-280 239.5,-302 394.5,-302 394.5,-280 239.5,-280"/>
<text text-anchor="start" x="245.5" y="-288.8" font-family="Arial" font-size="9.00">&#45; &#160;status : String</text>
<polygon fill="none" stroke="black" points="239.5,-258 239.5,-280 394.5,-280 394.5,-258 239.5,-258"/>
<text text-anchor="start" x="245.5" y="-266.8" font-family="Arial" font-size="9.00">&#45; &#160;rejectionReason : String</text>
</g>
<!-- InsuranceCompany -->
<g id="node8" class="node">
<title>InsuranceCompany</title>
<polygon fill="#d9eaf7" stroke="transparent" points="1181.5,-515 1181.5,-551 1320.5,-551 1320.5,-515 1181.5,-515"/>
<polygon fill="none" stroke="black" points="1181.5,-515 1181.5,-551 1320.5,-551 1320.5,-515 1181.5,-515"/>
<text text-anchor="start" x="1226" y="-538" font-family="Arial" font-size="10.00">&lt;&lt;Entity&gt;&gt;</text>
<text text-anchor="start" x="1187.5" y="-524.8" font-family="Arial" font-weight="bold" font-size="14.00">InsuranceCompany</text>
<polygon fill="none" stroke="black" points="1181.5,-493 1181.5,-515 1320.5,-515 1320.5,-493 1181.5,-493"/>
<text text-anchor="start" x="1187.5" y="-501.8" font-family="Arial" font-size="9.00">PK &#160;companyId : int</text>
<polygon fill="none" stroke="black" points="1181.5,-471 1181.5,-493 1320.5,-493 1320.5,-471 1181.5,-471"/>
<text text-anchor="start" x="1187.5" y="-479.8" font-family="Arial" font-size="9.00">&#45; &#160;companyName : String</text>
<polygon fill="none" stroke="black" points="1181.5,-449 1181.5,-471 1320.5,-471 1320.5,-449 1181.5,-449"/>
<text text-anchor="start" x="1187.5" y="-457.8" font-family="Arial" font-size="9.00">&#45; &#160;registrationNumber : String</text>
<polygon fill="none" stroke="black" points="1181.5,-427 1181.5,-449 1320.5,-449 1320.5,-427 1181.5,-427"/>
<text text-anchor="start" x="1187.5" y="-435.8" font-family="Arial" font-size="9.00">&#45; &#160;address : String</text>
<polygon fill="none" stroke="black" points="1181.5,-405 1181.5,-427 1320.5,-427 1320.5,-405 1181.5,-405"/>
<text text-anchor="start" x="1187.5" y="-413.8" font-family="Arial" font-size="9.00">&#45; &#160;contactEmail : String</text>
</g>
<!-- Claim&#45;&gt;InsuranceCompany -->
<g id="edge4" class="edge">
<title>Claim&#45;&gt;InsuranceCompany</title>
<path fill="none" stroke="#556270" stroke-width="1.1" d="M394.22,-451.35C455.09,-503.19 530,-567 530,-567 530,-567 829,-628 829,-628 829,-628 973,-628 973,-628 973,-628 1098.91,-559.7 1180.8,-515.27"/>
<text text-anchor="middle" x="756" y="-622.6" font-family="Arial" font-size="8.00"> &#160;insuranceCompany</text>
<text text-anchor="middle" x="1171.27" y="-526.23" font-family="Arial" font-size="8.00">1</text>
<text text-anchor="middle" x="409.64" y="-453.7" font-family="Arial" font-size="8.00">0..*</text>
</g>
<!-- Invoice -->
<g id="node10" class="node">
<title>Invoice</title>
<polygon fill="#d9eaf7" stroke="transparent" points="530.5,-286 530.5,-322 683.5,-322 683.5,-286 530.5,-286"/>
<polygon fill="none" stroke="black" points="530.5,-286 530.5,-322 683.5,-322 683.5,-286 530.5,-286"/>
<text text-anchor="start" x="582" y="-309" font-family="Arial" font-size="10.00">&lt;&lt;Entity&gt;&gt;</text>
<text text-anchor="start" x="583.5" y="-295.8" font-family="Arial" font-weight="bold" font-size="14.00">Invoice</text>
<polygon fill="none" stroke="black" points="530.5,-264 530.5,-286 683.5,-286 683.5,-264 530.5,-264"/>
<text text-anchor="start" x="536.5" y="-272.8" font-family="Arial" font-size="9.00">PK &#160;invoiceId : int</text>
<polygon fill="none" stroke="black" points="530.5,-242 530.5,-264 683.5,-264 683.5,-242 530.5,-242"/>
<text text-anchor="start" x="536.5" y="-250.8" font-family="Arial" font-size="9.00">&#45; &#160;invoiceNumber : String</text>
<polygon fill="none" stroke="black" points="530.5,-220 530.5,-242 683.5,-242 683.5,-220 530.5,-220"/>
<text text-anchor="start" x="536.5" y="-228.8" font-family="Arial" font-size="9.00">&#45; &#160;invoiceDate : LocalDate</text>
<polygon fill="none" stroke="black" points="530.5,-198 530.5,-220 683.5,-220 683.5,-198 530.5,-198"/>
<text text-anchor="start" x="536.5" y="-206.8" font-family="Arial" font-size="9.00">&#45; &#160;dueDate : LocalDate</text>
<polygon fill="none" stroke="black" points="530.5,-176 530.5,-198 683.5,-198 683.5,-176 530.5,-176"/>
<text text-anchor="start" x="536.5" y="-184.8" font-family="Arial" font-size="9.00">&#45; &#160;consultationFee : BigDecimal</text>
<polygon fill="none" stroke="black" points="530.5,-154 530.5,-176 683.5,-176 683.5,-154 530.5,-154"/>
<text text-anchor="start" x="536.5" y="-162.8" font-family="Arial" font-size="9.00">&#45; &#160;diagnosticTestsFee : BigDecimal</text>
<polygon fill="none" stroke="black" points="530.5,-132 530.5,-154 683.5,-154 683.5,-132 530.5,-132"/>
<text text-anchor="start" x="536.5" y="-140.8" font-family="Arial" font-size="9.00">&#45; &#160;diagnosticScanFee : BigDecimal</text>
<polygon fill="none" stroke="black" points="530.5,-110 530.5,-132 683.5,-132 683.5,-110 530.5,-110"/>
<text text-anchor="start" x="536.5" y="-118.8" font-family="Arial" font-size="9.00">&#45; &#160;medicationsFee : BigDecimal</text>
<polygon fill="none" stroke="black" points="530.5,-88 530.5,-110 683.5,-110 683.5,-88 530.5,-88"/>
<text text-anchor="start" x="536.5" y="-96.8" font-family="Arial" font-size="9.00">&#45; &#160;taxPercentage : BigDecimal</text>
<polygon fill="none" stroke="black" points="530.5,-66 530.5,-88 683.5,-88 683.5,-66 530.5,-66"/>
<text text-anchor="start" x="536.5" y="-74.8" font-family="Arial" font-size="9.00">&#45; &#160;taxAmount : BigDecimal</text>
<polygon fill="none" stroke="black" points="530.5,-44 530.5,-66 683.5,-66 683.5,-44 530.5,-44"/>
<text text-anchor="start" x="536.5" y="-52.8" font-family="Arial" font-size="9.00">&#45; &#160;totalAmount : BigDecimal</text>
<polygon fill="none" stroke="black" points="530.5,-22 530.5,-44 683.5,-44 683.5,-22 530.5,-22"/>
<text text-anchor="start" x="536.5" y="-30.8" font-family="Arial" font-size="9.00">&#45; &#160;status : String</text>
<polygon fill="none" stroke="black" points="530.5,0 530.5,-22 683.5,-22 683.5,0 530.5,0"/>
<text text-anchor="start" x="536.5" y="-8.8" font-family="Arial" font-size="9.00">&#45; &#160;createdAt : LocalDateTime</text>
</g>
<!-- Claim&#45;&gt;Invoice -->
<g id="edge3" class="edge">
<title>Claim&#45;&gt;Invoice</title>
<path fill="none" stroke="#556270" stroke-width="1.1" d="M394.3,-326C436.29,-293.19 488.11,-252.71 529.91,-220.05"/>
<text text-anchor="middle" x="462" y="-295.6" font-family="Arial" font-size="8.00"> &#160;invoice</text>
<text text-anchor="middle" x="522.65" y="-232.41" font-family="Arial" font-size="8.00">1</text>
<text text-anchor="middle" x="401.56" y="-309.84" font-family="Arial" font-size="8.00">0..*</text>
</g>
<!-- Patient -->
<g id="node12" class="node">
<title>Patient</title>
<polygon fill="#d9eaf7" stroke="transparent" points="844,-354 844,-390 959,-390 959,-354 844,-354"/>
<polygon fill="none" stroke="black" points="844,-354 844,-390 959,-390 959,-354 844,-354"/>
<text text-anchor="start" x="876.5" y="-377" font-family="Arial" font-size="10.00">&lt;&lt;Entity&gt;&gt;</text>
<text text-anchor="start" x="878.5" y="-363.8" font-family="Arial" font-weight="bold" font-size="14.00">Patient</text>
<polygon fill="none" stroke="black" points="844,-332 844,-354 959,-354 959,-332 844,-332"/>
<text text-anchor="start" x="850" y="-340.8" font-family="Arial" font-size="9.00">PK &#160;patientId : int</text>
<polygon fill="none" stroke="black" points="844,-310 844,-332 959,-332 959,-310 844,-310"/>
<text text-anchor="start" x="850" y="-318.8" font-family="Arial" font-size="9.00">&#45; &#160;fullName : String</text>
<polygon fill="none" stroke="black" points="844,-288 844,-310 959,-310 959,-288 844,-288"/>
<text text-anchor="start" x="850" y="-296.8" font-family="Arial" font-size="9.00">&#45; &#160;dateOfBirth : LocalDate</text>
<polygon fill="none" stroke="black" points="844,-266 844,-288 959,-288 959,-266 844,-266"/>
<text text-anchor="start" x="850" y="-274.8" font-family="Arial" font-size="9.00">&#45; &#160;gender : String</text>
<polygon fill="none" stroke="black" points="844,-244 844,-266 959,-266 959,-244 844,-244"/>
<text text-anchor="start" x="850" y="-252.8" font-family="Arial" font-size="9.00">&#45; &#160;address : String</text>
<polygon fill="none" stroke="black" points="844,-222 844,-244 959,-244 959,-222 844,-222"/>
<text text-anchor="start" x="850" y="-230.8" font-family="Arial" font-size="9.00">&#45; &#160;symptoms : String</text>
<polygon fill="none" stroke="black" points="844,-200 844,-222 959,-222 959,-200 844,-200"/>
<text text-anchor="start" x="850" y="-208.8" font-family="Arial" font-size="9.00">&#45; &#160;treatment : String</text>
</g>
<!-- Claim&#45;&gt;Patient -->
<g id="edge2" class="edge">
<title>Claim&#45;&gt;Patient</title>
<path fill="none" stroke="#556270" stroke-width="1.1" d="M394.12,-375.94C501.3,-361.86 683,-338 683,-338 683,-338 778.97,-318.98 843.27,-306.24"/>
<text text-anchor="middle" x="606.5" y="-360.6" font-family="Arial" font-size="8.00"> &#160;patient</text>
<text text-anchor="middle" x="830.36" y="-313.79" font-family="Arial" font-size="8.00">1</text>
<text text-anchor="middle" x="407.62" y="-365.45" font-family="Arial" font-size="8.00">0..*</text>
</g>
<!-- PatientInsurance -->
<g id="node13" class="node">
<title>PatientInsurance</title>
<polygon fill="#d9eaf7" stroke="transparent" points="540.5,-515 540.5,-551 672.5,-551 672.5,-515 540.5,-515"/>
<polygon fill="none" stroke="black" points="540.5,-515 540.5,-551 672.5,-551 672.5,-515 540.5,-515"/>
<text text-anchor="start" x="581.5" y="-538" font-family="Arial" font-size="10.00">&lt;&lt;Entity&gt;&gt;</text>
<text text-anchor="start" x="552" y="-524.8" font-family="Arial" font-weight="bold" font-size="14.00">PatientInsurance</text>
<polygon fill="none" stroke="black" points="540.5,-493 540.5,-515 672.5,-515 672.5,-493 540.5,-493"/>
<text text-anchor="start" x="546.5" y="-501.8" font-family="Arial" font-size="9.00">PK &#160;enrollmentId : int</text>
<polygon fill="none" stroke="black" points="540.5,-471 540.5,-493 672.5,-493 672.5,-471 540.5,-471"/>
<text text-anchor="start" x="546.5" y="-479.8" font-family="Arial" font-size="9.00">&#45; &#160;enrollmentDate : LocalDate</text>
<polygon fill="none" stroke="black" points="540.5,-449 540.5,-471 672.5,-471 672.5,-449 540.5,-449"/>
<text text-anchor="start" x="546.5" y="-457.8" font-family="Arial" font-size="9.00">&#45; &#160;expiryDate : LocalDate</text>
<polygon fill="none" stroke="black" points="540.5,-427 540.5,-449 672.5,-449 672.5,-427 540.5,-427"/>
<text text-anchor="start" x="546.5" y="-435.8" font-family="Arial" font-size="9.00">&#45; &#160;status : String</text>
</g>
<!-- Claim&#45;&gt;PatientInsurance -->
<g id="edge5" class="edge">
<title>Claim&#45;&gt;PatientInsurance</title>
<path fill="none" stroke="#556270" stroke-width="1.1" d="M394.3,-413.47C439.79,-429.74 496.82,-450.13 540.14,-465.62"/>
<text text-anchor="middle" x="462" y="-448.6" font-family="Arial" font-size="8.00"> &#160;patientInsurance</text>
<text text-anchor="middle" x="524.21" y="-465.21" font-family="Arial" font-size="8.00">1</text>
<text text-anchor="middle" x="410.23" y="-410.08" font-family="Arial" font-size="8.00">0..*</text>
</g>
<!-- ClaimDocument -->
<g id="node4" class="node">
<title>ClaimDocument</title>
<polygon fill="#d9eaf7" stroke="transparent" points="4,-619 4,-655 140,-655 140,-619 4,-619"/>
<polygon fill="none" stroke="black" points="4,-619 4,-655 140,-655 140,-619 4,-619"/>
<text text-anchor="start" x="47" y="-642" font-family="Arial" font-size="10.00">&lt;&lt;Entity&gt;&gt;</text>
<text text-anchor="start" x="19.5" y="-628.8" font-family="Arial" font-weight="bold" font-size="14.00">ClaimDocument</text>
<polygon fill="none" stroke="black" points="4,-597 4,-619 140,-619 140,-597 4,-597"/>
<text text-anchor="start" x="10" y="-605.8" font-family="Arial" font-size="9.00">PK &#160;documentId : Integer</text>
<polygon fill="none" stroke="black" points="4,-575 4,-597 140,-597 140,-575 4,-575"/>
<text text-anchor="start" x="10" y="-583.8" font-family="Arial" font-size="9.00">&#45; &#160;originalFileName : String</text>
<polygon fill="none" stroke="black" points="4,-553 4,-575 140,-575 140,-553 4,-553"/>
<text text-anchor="start" x="10" y="-561.8" font-family="Arial" font-size="9.00">&#45; &#160;storedFileName : String</text>
<polygon fill="none" stroke="black" points="4,-531 4,-553 140,-553 140,-531 4,-531"/>
<text text-anchor="start" x="10" y="-539.8" font-family="Arial" font-size="9.00">&#45; &#160;contentType : String</text>
<polygon fill="none" stroke="black" points="4,-509 4,-531 140,-531 140,-509 4,-509"/>
<text text-anchor="start" x="10" y="-517.8" font-family="Arial" font-size="9.00">&#45; &#160;fileSize : Long</text>
<polygon fill="none" stroke="black" points="4,-487 4,-509 140,-509 140,-487 4,-487"/>
<text text-anchor="start" x="10" y="-495.8" font-family="Arial" font-size="9.00">&#45; &#160;uploadedAt : LocalDateTime</text>
</g>
<!-- ClaimDocument&#45;&gt;Claim -->
<g id="edge6" class="edge">
<title>ClaimDocument&#45;&gt;Claim</title>
<path fill="none" stroke="#556270" stroke-width="1.1" d="M140.23,-519.71C170.78,-496.4 207.1,-468.7 238.72,-444.57"/>
<text text-anchor="middle" x="191.5" y="-486.6" font-family="Arial" font-size="8.00"> &#160;claim</text>
<text text-anchor="middle" x="231.29" y="-456.85" font-family="Arial" font-size="8.00">1</text>
<text text-anchor="middle" x="147.66" y="-503.64" font-family="Arial" font-size="8.00">0..*</text>
</g>
<!-- ClaimPayment -->
<g id="node5" class="node">
<title>ClaimPayment</title>
<polygon fill="#d9eaf7" stroke="transparent" points="0,-419 0,-455 144,-455 144,-419 0,-419"/>
<polygon fill="none" stroke="black" points="0,-419 0,-455 144,-455 144,-419 0,-419"/>
<text text-anchor="start" x="47" y="-442" font-family="Arial" font-size="10.00">&lt;&lt;Entity&gt;&gt;</text>
<text text-anchor="start" x="24.5" y="-428.8" font-family="Arial" font-weight="bold" font-size="14.00">ClaimPayment</text>
<polygon fill="none" stroke="black" points="0,-397 0,-419 144,-419 144,-397 0,-397"/>
<text text-anchor="start" x="6" y="-405.8" font-family="Arial" font-size="9.00">PK &#160;paymentId : int</text>
<polygon fill="none" stroke="black" points="0,-375 0,-397 144,-397 144,-375 0,-375"/>
<text text-anchor="start" x="6" y="-383.8" font-family="Arial" font-size="9.00">&#45; &#160;paymentDate : LocalDateTime</text>
<polygon fill="none" stroke="black" points="0,-353 0,-375 144,-375 144,-353 0,-353"/>
<text text-anchor="start" x="6" y="-361.8" font-family="Arial" font-size="9.00">&#45; &#160;paymentAmount : BigDecimal</text>
<polygon fill="none" stroke="black" points="0,-331 0,-353 144,-353 144,-331 0,-331"/>
<text text-anchor="start" x="6" y="-339.8" font-family="Arial" font-size="9.00">&#45; &#160;paymentMode : String</text>
<polygon fill="none" stroke="black" points="0,-309 0,-331 144,-331 144,-309 0,-309"/>
<text text-anchor="start" x="6" y="-317.8" font-family="Arial" font-size="9.00">&#45; &#160;transactionReference : String</text>
</g>
<!-- ClaimPayment&#45;&gt;Claim -->
<g id="edge7" class="edge">
<title>ClaimPayment&#45;&gt;Claim</title>
<path fill="none" stroke="#556270" stroke-width="1.1" d="M144.12,-383.17C173.89,-383.66 208.55,-384.24 238.88,-384.74"/>
<text text-anchor="middle" x="191.5" y="-386.6" font-family="Arial" font-size="8.00"> &#160;claim</text>
<text text-anchor="middle" x="224.27" y="-389.36" font-family="Arial" font-size="8.00">1</text>
<text text-anchor="middle" x="158.73" y="-374.75" font-family="Arial" font-size="8.00">0..1</text>
</g>
<!-- EmailNotification -->
<g id="node6" class="node">
<title>EmailNotification</title>
<polygon fill="#d9eaf7" stroke="transparent" points="1188.5,-693 1188.5,-729 1312.5,-729 1312.5,-693 1188.5,-693"/>
<polygon fill="none" stroke="black" points="1188.5,-693 1188.5,-729 1312.5,-729 1312.5,-693 1188.5,-693"/>
<text text-anchor="start" x="1225.5" y="-716" font-family="Arial" font-size="10.00">&lt;&lt;Entity&gt;&gt;</text>
<text text-anchor="start" x="1194.5" y="-702.8" font-family="Arial" font-weight="bold" font-size="14.00">EmailNotification</text>
<polygon fill="none" stroke="black" points="1188.5,-671 1188.5,-693 1312.5,-693 1312.5,-671 1188.5,-671"/>
<text text-anchor="start" x="1194.5" y="-679.8" font-family="Arial" font-size="9.00">PK &#160;notificatoinId : int</text>
<polygon fill="none" stroke="black" points="1188.5,-649 1188.5,-671 1312.5,-671 1312.5,-649 1188.5,-649"/>
<text text-anchor="start" x="1194.5" y="-657.8" font-family="Arial" font-size="9.00">&#45; &#160;subject : String</text>
<polygon fill="none" stroke="black" points="1188.5,-627 1188.5,-649 1312.5,-649 1312.5,-627 1188.5,-627"/>
<text text-anchor="start" x="1194.5" y="-635.8" font-family="Arial" font-size="9.00">&#45; &#160;message : String</text>
<polygon fill="none" stroke="black" points="1188.5,-605 1188.5,-627 1312.5,-627 1312.5,-605 1188.5,-605"/>
<text text-anchor="start" x="1194.5" y="-613.8" font-family="Arial" font-size="9.00">&#45; &#160;sentAt : LocalDateTime</text>
<polygon fill="none" stroke="black" points="1188.5,-583 1188.5,-605 1312.5,-605 1312.5,-583 1188.5,-583"/>
<text text-anchor="start" x="1194.5" y="-591.8" font-family="Arial" font-size="9.00">&#45; &#160;status : String</text>
</g>
<!-- EmailNotification&#45;&gt;AppUser -->
<g id="edge8" class="edge">
<title>EmailNotification&#45;&gt;AppUser</title>
<path fill="none" stroke="#556270" stroke-width="1.1" d="M1312.56,-610.62C1347.9,-584.36 1392.3,-551.36 1427.97,-524.85"/>
<text text-anchor="middle" x="1374" y="-579.6" font-family="Arial" font-size="8.00"> &#160;appUser</text>
<text text-anchor="middle" x="1420.36" y="-537.02" font-family="Arial" font-size="8.00">0..1</text>
<text text-anchor="middle" x="1320.16" y="-594.65" font-family="Arial" font-size="8.00">0..*</text>
</g>
<!-- HealthcareProvider -->
<g id="node7" class="node">
<title>HealthcareProvider</title>
<polygon fill="#d9eaf7" stroke="transparent" points="1009,-201 1009,-237 1145,-237 1145,-201 1009,-201"/>
<polygon fill="none" stroke="black" points="1009,-201 1009,-237 1145,-237 1145,-201 1009,-201"/>
<text text-anchor="start" x="1052" y="-224" font-family="Arial" font-size="10.00">&lt;&lt;Entity&gt;&gt;</text>
<text text-anchor="start" x="1015" y="-210.8" font-family="Arial" font-weight="bold" font-size="14.00">HealthcareProvider</text>
<polygon fill="none" stroke="black" points="1009,-179 1009,-201 1145,-201 1145,-179 1009,-179"/>
<text text-anchor="start" x="1015" y="-187.8" font-family="Arial" font-size="9.00">PK &#160;providerId : int</text>
<polygon fill="none" stroke="black" points="1009,-157 1009,-179 1145,-179 1145,-157 1009,-157"/>
<text text-anchor="start" x="1015" y="-165.8" font-family="Arial" font-size="9.00">&#45; &#160;providerName : String</text>
<polygon fill="none" stroke="black" points="1009,-135 1009,-157 1145,-157 1145,-135 1009,-135"/>
<text text-anchor="start" x="1015" y="-143.8" font-family="Arial" font-size="9.00">&#45; &#160;specialization : String</text>
<polygon fill="none" stroke="black" points="1009,-113 1009,-135 1145,-135 1145,-113 1009,-113"/>
<text text-anchor="start" x="1015" y="-121.8" font-family="Arial" font-size="9.00">&#45; &#160;licenseNumber : String</text>
<polygon fill="none" stroke="black" points="1009,-91 1009,-113 1145,-113 1145,-91 1009,-91"/>
<text text-anchor="start" x="1015" y="-99.8" font-family="Arial" font-size="9.00">&#45; &#160;address : String</text>
</g>
<!-- HealthcareProvider&#45;&gt;AppUser -->
<g id="edge9" class="edge">
<title>HealthcareProvider&#45;&gt;AppUser</title>
<path fill="none" stroke="#556270" stroke-width="1.1" d="M1145.36,-189.96C1237.62,-225.51 1392,-285 1392,-285 1392,-285 1410.11,-320.31 1430.84,-360.72"/>
<text text-anchor="middle" x="1250.5" y="-258.6" font-family="Arial" font-size="8.00"> &#160;appUser</text>
<text text-anchor="middle" x="1418.21" y="-349.01" font-family="Arial" font-size="8.00">0..1</text>
<text text-anchor="middle" x="1161.32" y="-186.96" font-family="Arial" font-size="8.00">0..*</text>
</g>
<!-- InsuranceCompany&#45;&gt;AppUser -->
<g id="edge10" class="edge">
<title>InsuranceCompany&#45;&gt;AppUser</title>
<path fill="none" stroke="#556270" stroke-width="1.1" d="M1320.13,-478C1354,-478 1394.58,-478 1427.69,-478"/>
<text text-anchor="middle" x="1374" y="-480.6" font-family="Arial" font-size="8.00"> &#160;appUser</text>
<text text-anchor="middle" x="1413.19" y="-482.86" font-family="Arial" font-size="8.00">0..1</text>
<text text-anchor="middle" x="1334.63" y="-469.34" font-family="Arial" font-size="8.00">0..*</text>
</g>
<!-- InsurancePlan -->
<g id="node9" class="node">
<title>InsurancePlan</title>
<polygon fill="#d9eaf7" stroke="transparent" points="829,-576 829,-612 973,-612 973,-576 829,-576"/>
<polygon fill="none" stroke="black" points="829,-576 829,-612 973,-612 973,-576 829,-576"/>
<text text-anchor="start" x="876" y="-599" font-family="Arial" font-size="10.00">&lt;&lt;Entity&gt;&gt;</text>
<text text-anchor="start" x="854.5" y="-585.8" font-family="Arial" font-weight="bold" font-size="14.00">InsurancePlan</text>
<polygon fill="none" stroke="black" points="829,-554 829,-576 973,-576 973,-554 829,-554"/>
<text text-anchor="start" x="835" y="-562.8" font-family="Arial" font-size="9.00">PK &#160;planId : int</text>
<polygon fill="none" stroke="black" points="829,-532 829,-554 973,-554 973,-532 829,-532"/>
<text text-anchor="start" x="835" y="-540.8" font-family="Arial" font-size="9.00">&#45; &#160;planName : String</text>
<polygon fill="none" stroke="black" points="829,-510 829,-532 973,-532 973,-510 829,-510"/>
<text text-anchor="start" x="835" y="-518.8" font-family="Arial" font-size="9.00">&#45; &#160;planDescription : String</text>
<polygon fill="none" stroke="black" points="829,-488 829,-510 973,-510 973,-488 829,-488"/>
<text text-anchor="start" x="835" y="-496.8" font-family="Arial" font-size="9.00">&#45; &#160;coverageAmount : BigDecimal</text>
<polygon fill="none" stroke="black" points="829,-466 829,-488 973,-488 973,-466 829,-466"/>
<text text-anchor="start" x="835" y="-474.8" font-family="Arial" font-size="9.00">&#45; &#160;premiumAmount : BigDecimal</text>
<polygon fill="none" stroke="black" points="829,-444 829,-466 973,-466 973,-444 829,-444"/>
<text text-anchor="start" x="835" y="-452.8" font-family="Arial" font-size="9.00">&#45; &#160;validityMonths : int</text>
<polygon fill="none" stroke="black" points="829,-422 829,-444 973,-444 973,-422 829,-422"/>
<text text-anchor="start" x="835" y="-430.8" font-family="Arial" font-size="9.00">&#45; &#160;isActive : boolean</text>
</g>
<!-- InsurancePlan&#45;&gt;InsuranceCompany -->
<g id="edge11" class="edge">
<title>InsurancePlan&#45;&gt;InsuranceCompany</title>
<path fill="none" stroke="#556270" stroke-width="1.1" d="M973.16,-509.01C1033.92,-502.19 1120.76,-492.45 1180.8,-485.71"/>
<text text-anchor="middle" x="1077" y="-506.6" font-family="Arial" font-size="8.00"> &#160;insuranceCompany</text>
<text text-anchor="middle" x="1167.15" y="-492.15" font-family="Arial" font-size="8.00">0..1</text>
<text text-anchor="middle" x="986.82" y="-498.78" font-family="Arial" font-size="8.00">0..*</text>
</g>
<!-- Invoice&#45;&gt;HealthcareProvider -->
<g id="edge12" class="edge">
<title>Invoice&#45;&gt;HealthcareProvider</title>
<path fill="none" stroke="#556270" stroke-width="1.1" d="M683.03,-161.48C773.23,-162.06 922.7,-163.02 1008.97,-163.57"/>
<text text-anchor="middle" x="756" y="-164.6" font-family="Arial" font-size="8.00"> &#160;healthcareProvider</text>
<text text-anchor="middle" x="994.42" y="-168.34" font-family="Arial" font-size="8.00">0..1</text>
<text text-anchor="middle" x="697.58" y="-152.91" font-family="Arial" font-size="8.00">0..*</text>
</g>
<!-- Invoice&#45;&gt;Patient -->
<g id="edge13" class="edge">
<title>Invoice&#45;&gt;Patient</title>
<path fill="none" stroke="#556270" stroke-width="1.1" d="M683.21,-195.68C733.14,-218.56 797.5,-248.04 843.09,-268.93"/>
<text text-anchor="middle" x="756" y="-245.6" font-family="Arial" font-size="8.00"> &#160;patient</text>
<text text-anchor="middle" x="827.09" y="-267.14" font-family="Arial" font-size="8.00">0..1</text>
<text text-anchor="middle" x="699.21" y="-193.67" font-family="Arial" font-size="8.00">0..*</text>
</g>
<!-- InvoicePayment -->
<g id="node11" class="node">
<title>InvoicePayment</title>
<polygon fill="#d9eaf7" stroke="transparent" points="0,-232 0,-268 144,-268 144,-232 0,-232"/>
<polygon fill="none" stroke="black" points="0,-232 0,-268 144,-268 144,-232 0,-232"/>
<text text-anchor="start" x="47" y="-255" font-family="Arial" font-size="10.00">&lt;&lt;Entity&gt;&gt;</text>
<text text-anchor="start" x="20" y="-241.8" font-family="Arial" font-weight="bold" font-size="14.00">InvoicePayment</text>
<polygon fill="none" stroke="black" points="0,-210 0,-232 144,-232 144,-210 0,-210"/>
<text text-anchor="start" x="6" y="-218.8" font-family="Arial" font-size="9.00">PK &#160;paymentId : int</text>
<polygon fill="none" stroke="black" points="0,-188 0,-210 144,-210 144,-188 0,-188"/>
<text text-anchor="start" x="6" y="-196.8" font-family="Arial" font-size="9.00">&#45; &#160;paymentDate : LocalDateTime</text>
<polygon fill="none" stroke="black" points="0,-166 0,-188 144,-188 144,-166 0,-166"/>
<text text-anchor="start" x="6" y="-174.8" font-family="Arial" font-size="9.00">&#45; &#160;paymentAmount : BigDecimal</text>
<polygon fill="none" stroke="black" points="0,-144 0,-166 144,-166 144,-144 0,-144"/>
<text text-anchor="start" x="6" y="-152.8" font-family="Arial" font-size="9.00">&#45; &#160;paymentMethod : String</text>
<polygon fill="none" stroke="black" points="0,-122 0,-144 144,-144 144,-122 0,-122"/>
<text text-anchor="start" x="6" y="-130.8" font-family="Arial" font-size="9.00">&#45; &#160;transactionReference : String</text>
<polygon fill="none" stroke="black" points="0,-100 0,-122 144,-122 144,-100 0,-100"/>
<text text-anchor="start" x="6" y="-108.8" font-family="Arial" font-size="9.00">&#45; &#160;paymentStatus : String</text>
</g>
<!-- InvoicePayment&#45;&gt;Claim -->
<g id="edge15" class="edge">
<title>InvoicePayment&#45;&gt;Claim</title>
<path fill="none" stroke="#556270" stroke-width="1.1" d="M144.12,-243.24C173.89,-268.04 208.55,-296.91 238.88,-322.18"/>
<text text-anchor="middle" x="191.5" y="-293.6" font-family="Arial" font-size="8.00"> &#160;claim</text>
<text text-anchor="middle" x="223.41" y="-316.19" font-family="Arial" font-size="8.00">0..1</text>
<text text-anchor="middle" x="159.59" y="-245.43" font-family="Arial" font-size="8.00">0..1</text>
</g>
<!-- InvoicePayment&#45;&gt;Invoice -->
<g id="edge14" class="edge">
<title>InvoicePayment&#45;&gt;Invoice</title>
<path fill="none" stroke="#556270" stroke-width="1.1" d="M144.26,-180.92C244.73,-176.58 427.19,-168.7 529.93,-164.26"/>
<text text-anchor="middle" x="316.5" y="-178.6" font-family="Arial" font-size="8.00"> &#160;invoice</text>
<text text-anchor="middle" x="515.74" y="-169.75" font-family="Arial" font-size="8.00">1</text>
<text text-anchor="middle" x="158.46" y="-171.64" font-family="Arial" font-size="8.00">0..1</text>
</g>
<!-- Patient&#45;&gt;AppUser -->
<g id="edge16" class="edge">
<title>Patient&#45;&gt;AppUser</title>
<path fill="none" stroke="#556270" stroke-width="1.1" d="M958.81,-306.55C1073.1,-329.79 1320,-380 1320,-380 1320,-380 1379.1,-413.87 1427.81,-441.79"/>
<text text-anchor="middle" x="1250.5" y="-382.6" font-family="Arial" font-size="8.00"> &#160;appUser</text>
<text text-anchor="middle" x="1411.87" y="-438.54" font-family="Arial" font-size="8.00">0..1</text>
<text text-anchor="middle" x="974.37" y="-300.92" font-family="Arial" font-size="8.00">0..*</text>
</g>
<!-- PatientInsurance&#45;&gt;InsurancePlan -->
<g id="edge18" class="edge">
<title>PatientInsurance&#45;&gt;InsurancePlan</title>
<path fill="none" stroke="#556270" stroke-width="1.1" d="M672.78,-495.25C719.08,-499.68 781.19,-505.63 828.78,-510.18"/>
<text text-anchor="middle" x="756" y="-508.6" font-family="Arial" font-size="8.00"> &#160;insurancePlan</text>
<text text-anchor="middle" x="813.7" y="-513.63" font-family="Arial" font-size="8.00">0..1</text>
<text text-anchor="middle" x="687.86" y="-488" font-family="Arial" font-size="8.00">0..*</text>
</g>
<!-- PatientInsurance&#45;&gt;Patient -->
<g id="edge17" class="edge">
<title>PatientInsurance&#45;&gt;Patient</title>
<path fill="none" stroke="#556270" stroke-width="1.1" d="M672.64,-461.61C726.09,-439.13 793,-411 793,-411 793,-411 817.7,-384.22 843.37,-356.4"/>
<text text-anchor="middle" x="756" y="-442.6" font-family="Arial" font-size="8.00"> &#160;patient</text>
<text text-anchor="middle" x="838.51" y="-369.74" font-family="Arial" font-size="8.00">0..1</text>
<text text-anchor="middle" x="683.39" y="-447.86" font-family="Arial" font-size="8.00">0..*</text>
</g>
<!-- TokenBlacklist -->
<g id="node14" class="node">
<title>TokenBlacklist</title>
<polygon fill="#d9eaf7" stroke="transparent" points="1,-753 1,-789 143,-789 143,-753 1,-753"/>
<polygon fill="none" stroke="black" points="1,-753 1,-789 143,-789 143,-753 1,-753"/>
<text text-anchor="start" x="47" y="-776" font-family="Arial" font-size="10.00">&lt;&lt;Entity&gt;&gt;</text>
<text text-anchor="start" x="24.5" y="-762.8" font-family="Arial" font-weight="bold" font-size="14.00">TokenBlacklist</text>
<polygon fill="none" stroke="black" points="1,-731 1,-753 143,-753 143,-731 1,-731"/>
<text text-anchor="start" x="7" y="-739.8" font-family="Arial" font-size="9.00">PK &#160;id : int</text>
<polygon fill="none" stroke="black" points="1,-709 1,-731 143,-731 143,-709 1,-709"/>
<text text-anchor="start" x="7" y="-717.8" font-family="Arial" font-size="9.00">&#45; &#160;token : String</text>
<polygon fill="none" stroke="black" points="1,-687 1,-709 143,-709 143,-687 1,-687"/>
<text text-anchor="start" x="7" y="-695.8" font-family="Arial" font-size="9.00">&#45; &#160;invalidatedAt : LocalDateTime</text>
</g>
</g>
</svg>
